{
    "asset" : {
        "generator" : "Khronos glTF Blender I/O v1.1.46",
        "version" : "2.0"
    },
    "scene" : 0,
    "scenes" : [
        {
            "extras" : {
                "glTF2ExportSettings" : {
                    "export_apply" : 1,
                    "export_cameras" : 1,
                    "export_extras" : 1,
                    "export_format" : "GLTF_SEPARATE",
                    "export_lights" : 1,
                    "export_selected" : 1,
                    "export_tangents" : 1
                }
            },
            "name" : "Scene",
            "nodes" : [
                0,
                1
            ]
        }
    ],
    "nodes" : [
        {
            "mesh" : 0,
            "name" : "Building_collider.009",
            "scale" : [
                16,
                0.25,
                16
            ],
            "translation" : [
                -0.3384004831314087,
                18.438405990600586,
                -0.5719256401062012
            ]
        },
        {
            "mesh" : 1,
            "name" : "Wall Outline.037",
            "scale" : [
                0.2876979410648346,
                1,
                0.2876979410648346
            ],
            "translation" : [
                0.0025501251220703125,
                30.25,
                0.0006322860717773438
            ]
        }
    ],
    "materials" : [
        {
            "doubleSided" : true,
            "emissiveFactor" : [
                0.057802680879831314,
                0.057802680879831314,
                0.057802680879831314
            ],
            "name" : "Material.002",
            "pbrMetallicRoughness" : {
                "baseColorFactor" : [
                    0.03560131788253784,
                    0.15292620658874512,
                    0.318546861410141,
                    1
                ],
                "metallicFactor" : 0,
                "roughnessFactor" : 1
            }
        },
        {
            "doubleSided" : true,
            "emissiveFactor" : [
                0.11927617341279984,
                0.11927617341279984,
                0.11927617341279984
            ],
            "name" : "Material.001",
            "pbrMetallicRoughness" : {
                "baseColorFactor" : [
                    0.651405930519104,
                    0.6514057517051697,
                    0.6514058113098145,
                    1
                ],
                "metallicFactor" : 0,
                "roughnessFactor" : 1
            }
        },
        {
            "doubleSided" : true,
            "emissiveFactor" : [
                0.0732356607913971,
                0.0732356607913971,
                0.0732356607913971
            ],
            "name" : "Material",
            "pbrMetallicRoughness" : {
                "baseColorFactor" : [
                    1,
                    1,
                    1,
                    1
                ],
                "metallicFactor" : 0,
                "roughnessFactor" : 1
            }
        },
        {
            "doubleSided" : true,
            "emissiveFactor" : [
                0,
                0,
                0
            ],
            "name" : "Material.007",
            "pbrMetallicRoughness" : {
                "baseColorFactor" : [
                    0.04633864387869835,
                    0,
                    0.23301325738430023,
                    1
                ],
                "metallicFactor" : 0.11971831321716309,
                "roughnessFactor" : 1
            }
        },
        {
            "doubleSided" : true,
            "emissiveFactor" : [
                0,
                0,
                0
            ],
            "name" : "Material.008",
            "pbrMetallicRoughness" : {
                "baseColorFactor" : [
                    0.007103378418833017,
                    0.1328539401292801,
                    0.11901292204856873,
                    1
                ],
                "metallicFactor" : 0,
                "roughnessFactor" : 0.5
            }
        },
        {
            "doubleSided" : true,
            "emissiveFactor" : [
                0.08408704400062561,
                0.006020172964781523,
                0.303197979927063
            ],
            "name" : "Material.006",
            "pbrMetallicRoughness" : {}
        },
        {
            "doubleSided" : true,
            "emissiveFactor" : [
                0,
                0,
                0
            ],
            "name" : "Material.009",
            "pbrMetallicRoughness" : {
                "baseColorFactor" : [
                    0.050593990832567215,
                    0.22619807720184326,
                    0.4769805073738098,
                    1
                ],
                "metallicFactor" : 0,
                "roughnessFactor" : 0.5
            }
        }
    ],
    "meshes" : [
        {
            "name" : "Plane.119",
            "primitives" : [
                {
                    "attributes" : {
                        "POSITION" : 0,
                        "NORMAL" : 1,
                        "TEXCOORD_0" : 2
                    },
                    "indices" : 3
                }
            ]
        },
        {
            "name" : "Plane.120",
            "primitives" : [
                {
                    "attributes" : {
                        "POSITION" : 4,
                        "NORMAL" : 5,
                        "TEXCOORD_0" : 6
                    },
                    "indices" : 7,
                    "material" : 0
                },
                {
                    "attributes" : {
                        "POSITION" : 8,
                        "NORMAL" : 9,
                        "TEXCOORD_0" : 10
                    },
                    "indices" : 11,
                    "material" : 1
                },
                {
                    "attributes" : {
                        "POSITION" : 12,
                        "NORMAL" : 13,
                        "TEXCOORD_0" : 14
                    },
                    "indices" : 15,
                    "material" : 2
                },
                {
                    "attributes" : {
                        "POSITION" : 16,
                        "NORMAL" : 17,
                        "TEXCOORD_0" : 18
                    },
                    "indices" : 19,
                    "material" : 3
                },
                {
                    "attributes" : {
                        "POSITION" : 20,
                        "NORMAL" : 21,
                        "TEXCOORD_0" : 22
                    },
                    "indices" : 23,
                    "material" : 4
                },
                {
                    "attributes" : {
                        "POSITION" : 24,
                        "NORMAL" : 25,
                        "TEXCOORD_0" : 26
                    },
                    "indices" : 27,
                    "material" : 5
                },
                {
                    "attributes" : {
                        "POSITION" : 28,
                        "NORMAL" : 29,
                        "TEXCOORD_0" : 30
                    },
                    "indices" : 31,
                    "material" : 6
                }
            ]
        }
    ],
    "accessors" : [
        {
            "bufferView" : 0,
            "componentType" : 5126,
            "count" : 1037,
            "max" : [
                1.02114999294281,
                87.24637603759766,
                1.03574538230896
            ],
            "min" : [
                -0.9788499474525452,
                -73.75362396240234,
                -0.96425461769104
            ],
            "type" : "VEC3"
        },
        {
            "bufferView" : 1,
            "componentType" : 5126,
            "count" : 1037,
            "type" : "VEC3"
        },
        {
            "bufferView" : 2,
            "componentType" : 5126,
            "count" : 1037,
            "type" : "VEC2"
        },
        {
            "bufferView" : 3,
            "componentType" : 5123,
            "count" : 2106,
            "type" : "SCALAR"
        },
        {
            "bufferView" : 4,
            "componentType" : 5126,
            "count" : 596,
            "max" : [
                55.60502243041992,
                10,
                55.611690521240234
            ],
            "min" : [
                -55.62275314331055,
                -30,
                -55.616085052490234
            ],
            "type" : "VEC3"
        },
        {
            "bufferView" : 5,
            "componentType" : 5126,
            "count" : 596,
            "type" : "VEC3"
        },
        {
            "bufferView" : 6,
            "componentType" : 5126,
            "count" : 596,
            "type" : "VEC2"
        },
        {
            "bufferView" : 7,
            "componentType" : 5123,
            "count" : 1119,
            "type" : "SCALAR"
        },
        {
            "bufferView" : 8,
            "componentType" : 5126,
            "count" : 580,
            "max" : [
                46.92421340942383,
                9.75,
                46.92420959472656
            ],
            "min" : [
                -46.924217224121094,
                -30.225542068481445,
                -46.924217224121094
            ],
            "type" : "VEC3"
        },
        {
            "bufferView" : 9,
            "componentType" : 5126,
            "count" : 580,
            "type" : "VEC3"
        },
        {
            "bufferView" : 10,
            "componentType" : 5126,
            "count" : 580,
            "type" : "VEC2"
        },
        {
            "bufferView" : 11,
            "componentType" : 5123,
            "count" : 1236,
            "type" : "SCALAR"
        },
        {
            "bufferView" : 12,
            "componentType" : 5126,
            "count" : 72,
            "max" : [
                55.60502243041992,
                -20,
                55.611690521240234
            ],
            "min" : [
                -55.62275314331055,
                -30.25,
                -55.616085052490234
            ],
            "type" : "VEC3"
        },
        {
            "bufferView" : 13,
            "componentType" : 5126,
            "count" : 72,
            "type" : "VEC3"
        },
        {
            "bufferView" : 14,
            "componentType" : 5126,
            "count" : 72,
            "type" : "VEC2"
        },
        {
            "bufferView" : 15,
            "componentType" : 5123,
            "count" : 126,
            "type" : "SCALAR"
        },
        {
            "bufferView" : 16,
            "componentType" : 5126,
            "count" : 20,
            "max" : [
                52.129154205322266,
                -0.3600006103515625,
                52.13582229614258
            ],
            "min" : [
                -52.14688491821289,
                -0.3600009083747864,
                -52.14021682739258
            ],
            "type" : "VEC3"
        },
        {
            "bufferView" : 17,
            "componentType" : 5126,
            "count" : 20,
            "type" : "VEC3"
        },
        {
            "bufferView" : 18,
            "componentType" : 5126,
            "count" : 20,
            "type" : "VEC2"
        },
        {
            "bufferView" : 19,
            "componentType" : 5123,
            "count" : 48,
            "type" : "SCALAR"
        },
        {
            "bufferView" : 20,
            "componentType" : 5126,
            "count" : 40,
            "max" : [
                55.60502243041992,
                0,
                55.611690521240234
            ],
            "min" : [
                -55.62275314331055,
                -10,
                -55.616085052490234
            ],
            "type" : "VEC3"
        },
        {
            "bufferView" : 21,
            "componentType" : 5126,
            "count" : 40,
            "type" : "VEC3"
        },
        {
            "bufferView" : 22,
            "componentType" : 5126,
            "count" : 40,
            "type" : "VEC2"
        },
        {
            "bufferView" : 23,
            "componentType" : 5123,
            "count" : 90,
            "type" : "SCALAR"
        },
        {
            "bufferView" : 24,
            "componentType" : 5126,
            "count" : 204,
            "max" : [
                53.87594985961914,
                8.29121208190918,
                53.87594985961914
            ],
            "min" : [
                -53.875953674316406,
                -22.70878791809082,
                -53.875953674316406
            ],
            "type" : "VEC3"
        },
        {
            "bufferView" : 25,
            "componentType" : 5126,
            "count" : 204,
            "type" : "VEC3"
        },
        {
            "bufferView" : 26,
            "componentType" : 5126,
            "count" : 204,
            "type" : "VEC2"
        },
        {
            "bufferView" : 27,
            "componentType" : 5123,
            "count" : 360,
            "type" : "SCALAR"
        },
        {
            "bufferView" : 28,
            "componentType" : 5126,
            "count" : 101,
            "max" : [
                46.92421340942383,
                9.75,
                46.92420959472656
            ],
            "min" : [
                -46.924217224121094,
                -10,
                -46.924217224121094
            ],
            "type" : "VEC3"
        },
        {
            "bufferView" : 29,
            "componentType" : 5126,
            "count" : 101,
            "type" : "VEC3"
        },
        {
            "bufferView" : 30,
            "componentType" : 5126,
            "count" : 101,
            "type" : "VEC2"
        },
        {
            "bufferView" : 31,
            "componentType" : 5123,
            "count" : 183,
            "type" : "SCALAR"
        }
    ],
    "bufferViews" : [
        {
            "buffer" : 0,
            "byteLength" : 12444,
            "byteOffset" : 0
        },
        {
            "buffer" : 0,
            "byteLength" : 12444,
            "byteOffset" : 12444
        },
        {
            "buffer" : 0,
            "byteLength" : 8296,
            "byteOffset" : 24888
        },
        {
            "buffer" : 0,
            "byteLength" : 4212,
            "byteOffset" : 33184
        },
        {
            "buffer" : 0,
            "byteLength" : 7152,
            "byteOffset" : 37396
        },
        {
            "buffer" : 0,
            "byteLength" : 7152,
            "byteOffset" : 44548
        },
        {
            "buffer" : 0,
            "byteLength" : 4768,
            "byteOffset" : 51700
        },
        {
            "buffer" : 0,
            "byteLength" : 2238,
            "byteOffset" : 56468
        },
        {
            "buffer" : 0,
            "byteLength" : 6960,
            "byteOffset" : 58708
        },
        {
            "buffer" : 0,
            "byteLength" : 6960,
            "byteOffset" : 65668
        },
        {
            "buffer" : 0,
            "byteLength" : 4640,
            "byteOffset" : 72628
        },
        {
            "buffer" : 0,
            "byteLength" : 2472,
            "byteOffset" : 77268
        },
        {
            "buffer" : 0,
            "byteLength" : 864,
            "byteOffset" : 79740
        },
        {
            "buffer" : 0,
            "byteLength" : 864,
            "byteOffset" : 80604
        },
        {
            "buffer" : 0,
            "byteLength" : 576,
            "byteOffset" : 81468
        },
        {
            "buffer" : 0,
            "byteLength" : 252,
            "byteOffset" : 82044
        },
        {
            "buffer" : 0,
            "byteLength" : 240,
            "byteOffset" : 82296
        },
        {
            "buffer" : 0,
            "byteLength" : 240,
            "byteOffset" : 82536
        },
        {
            "buffer" : 0,
            "byteLength" : 160,
            "byteOffset" : 82776
        },
        {
            "buffer" : 0,
            "byteLength" : 96,
            "byteOffset" : 82936
        },
        {
            "buffer" : 0,
            "byteLength" : 480,
            "byteOffset" : 83032
        },
        {
            "buffer" : 0,
            "byteLength" : 480,
            "byteOffset" : 83512
        },
        {
            "buffer" : 0,
            "byteLength" : 320,
            "byteOffset" : 83992
        },
        {
            "buffer" : 0,
            "byteLength" : 180,
            "byteOffset" : 84312
        },
        {
            "buffer" : 0,
            "byteLength" : 2448,
            "byteOffset" : 84492
        },
        {
            "buffer" : 0,
            "byteLength" : 2448,
            "byteOffset" : 86940
        },
        {
            "buffer" : 0,
            "byteLength" : 1632,
            "byteOffset" : 89388
        },
        {
            "buffer" : 0,
            "byteLength" : 720,
            "byteOffset" : 91020
        },
        {
            "buffer" : 0,
            "byteLength" : 1212,
            "byteOffset" : 91740
        },
        {
            "buffer" : 0,
            "byteLength" : 1212,
            "byteOffset" : 92952
        },
        {
            "buffer" : 0,
            "byteLength" : 808,
            "byteOffset" : 94164
        },
        {
            "buffer" : 0,
            "byteLength" : 366,
            "byteOffset" : 94972
        }
    ],
    "buffers" : [
        {
            "byteLength" : 95340,
            "uri" : "DragonBuilding_LightenUp_2.bin"
        }
    ]
}
