{
    "asset" : {
        "generator" : "Khronos glTF Blender I/O v1.1.46",
        "version" : "2.0"
    },
    "scene" : 0,
    "scenes" : [
        {
            "extras" : {
                "glTF2ExportSettings" : {
                    "export_apply" : 1,
                    "export_cameras" : 1,
                    "export_extras" : 1,
                    "export_format" : "GLTF_EMBEDDED",
                    "export_lights" : 1,
                    "export_selected" : 1,
                    "export_tangents" : 1
                }
            },
            "name" : "Scene",
            "nodes" : [
                0,
                1
            ]
        }
    ],
    "nodes" : [
        {
            "mesh" : 0,
            "name" : "Building_collider.011",
            "scale" : [
                16,
                0.25,
                16
            ],
            "translation" : [
                -0.3384004831314087,
                18.438405990600586,
                -0.5719256401062012
            ]
        },
        {
            "mesh" : 1,
            "name" : "Neon Outline.010",
            "scale" : [
                0.29728788137435913,
                0.2666666805744171,
                0.29728788137435913
            ],
            "translation" : [
                0.0025501251220703125,
                5.941212177276611,
                0.0006322860717773438
            ]
        }
    ],
    "materials" : [
        {
            "doubleSided" : true,
            "emissiveFactor" : [
                0.06034059822559357,
                0,
                0.3672388792037964
            ],
            "name" : "Neons DCL",
            "pbrMetallicRoughness" : {}
        },
        {
            "doubleSided" : true,
            "emissiveFactor" : [
                0,
                0,
                0
            ],
            "name" : "Material",
            "pbrMetallicRoughness" : {
                "baseColorTexture" : {
                    "index" : 0,
                    "texCoord" : 0
                },
                "metallicFactor" : 0,
                "roughnessFactor" : 1
            }
        }
    ],
    "meshes" : [
        {
            "name" : "Plane.086",
            "primitives" : [
                {
                    "attributes" : {
                        "POSITION" : 0,
                        "NORMAL" : 1,
                        "TEXCOORD_0" : 2
                    },
                    "indices" : 3
                }
            ]
        },
        {
            "name" : "Plane.094",
            "primitives" : [
                {
                    "attributes" : {
                        "POSITION" : 4,
                        "NORMAL" : 5,
                        "TEXCOORD_0" : 6
                    },
                    "indices" : 7,
                    "material" : 0
                },
                {
                    "attributes" : {
                        "POSITION" : 8,
                        "NORMAL" : 9,
                        "TEXCOORD_0" : 10
                    },
                    "indices" : 11,
                    "material" : 1
                }
            ]
        }
    ],
    "textures" : [
        {
            "source" : 0
        }
    ],
    "images" : [
        {
            "bufferView" : 12,
            "mimeType" : "image/png",
            "name" : "MiniTown_TX"
        }
    ],
    "accessors" : [
        {
            "bufferView" : 0,
            "componentType" : 5126,
            "count" : 819,
            "max" : [
                1.02114999294281,
                87.24637603759766,
                1.03574538230896
            ],
            "min" : [
                -0.9788499474525452,
                -73.75362396240234,
                -0.96425461769104
            ],
            "type" : "VEC3"
        },
        {
            "bufferView" : 1,
            "componentType" : 5126,
            "count" : 819,
            "type" : "VEC3"
        },
        {
            "bufferView" : 2,
            "componentType" : 5126,
            "count" : 819,
            "type" : "VEC2"
        },
        {
            "bufferView" : 3,
            "componentType" : 5123,
            "count" : 1704,
            "type" : "SCALAR"
        },
        {
            "bufferView" : 4,
            "componentType" : 5126,
            "count" : 208,
            "max" : [
                52.13801193237305,
                122.24999237060547,
                52.13801193237305
            ],
            "min" : [
                -52.13801574707031,
                6,
                -52.13801574707031
            ],
            "type" : "VEC3"
        },
        {
            "bufferView" : 5,
            "componentType" : 5126,
            "count" : 208,
            "type" : "VEC3"
        },
        {
            "bufferView" : 6,
            "componentType" : 5126,
            "count" : 208,
            "type" : "VEC2"
        },
        {
            "bufferView" : 7,
            "componentType" : 5123,
            "count" : 360,
            "type" : "SCALAR"
        },
        {
            "bufferView" : 8,
            "componentType" : 5126,
            "count" : 1287,
            "max" : [
                53.81131362915039,
                128.657958984375,
                53.81776809692383
            ],
            "min" : [
                -53.82847213745117,
                -22.2795467376709,
                -53.822017669677734
            ],
            "type" : "VEC3"
        },
        {
            "bufferView" : 9,
            "componentType" : 5126,
            "count" : 1287,
            "type" : "VEC3"
        },
        {
            "bufferView" : 10,
            "componentType" : 5126,
            "count" : 1287,
            "type" : "VEC2"
        },
        {
            "bufferView" : 11,
            "componentType" : 5123,
            "count" : 2484,
            "type" : "SCALAR"
        }
    ],
    "bufferViews" : [
        {
            "buffer" : 0,
            "byteLength" : 9828,
            "byteOffset" : 0
        },
        {
            "buffer" : 0,
            "byteLength" : 9828,
            "byteOffset" : 9828
        },
        {
            "buffer" : 0,
            "byteLength" : 6552,
            "byteOffset" : 19656
        },
        {
            "buffer" : 0,
            "byteLength" : 3408,
            "byteOffset" : 26208
        },
        {
            "buffer" : 0,
            "byteLength" : 2496,
            "byteOffset" : 29616
        },
        {
            "buffer" : 0,
            "byteLength" : 2496,
            "byteOffset" : 32112
        },
        {
            "buffer" : 0,
            "byteLength" : 1664,
            "byteOffset" : 34608
        },
        {
            "buffer" : 0,
            "byteLength" : 720,
            "byteOffset" : 36272
        },
        {
            "buffer" : 0,
            "byteLength" : 15444,
            "byteOffset" : 36992
        },
        {
            "buffer" : 0,
            "byteLength" : 15444,
            "byteOffset" : 52436
        },
        {
            "buffer" : 0,
            "byteLength" : 10296,
            "byteOffset" : 67880
        },
        {
            "buffer" : 0,
            "byteLength" : 4968,
            "byteOffset" : 78176
        },
        {
            "buffer" : 0,
            "byteLength" : 5038,
            "byteOffset" : 83144
        }
    ],
    "buffers" : [
        {
            "byteLength" : 88184,
            "uri" : "data:application/octet-stream;base64,"
        }
    ]
}
