{
    "asset" : {
        "generator" : "Khronos glTF Blender I/O v1.1.46",
        "version" : "2.0"
    },
    "scene" : 0,
    "scenes" : [
        {
            "extras" : {
                "glTF2ExportSettings" : {
                    "export_apply" : 1,
                    "export_cameras" : 1,
                    "export_extras" : 1,
                    "export_format" : "GLTF_EMBEDDED",
                    "export_lights" : 1,
                    "export_selected" : 1,
                    "export_tangents" : 1
                }
            },
            "name" : "Scene",
            "nodes" : [
                0,
                1,
                2
            ]
        }
    ],
    "nodes" : [
        {
            "mesh" : 0,
            "name" : "Building_Collider",
            "scale" : [
                16,
                0.25,
                16
            ],
            "translation" : [
                -0.3384004831314087,
                18.438405990600586,
                -0.5719256401062012
            ]
        },
        {
            "mesh" : 1,
            "name" : "Neon Outline.011",
            "scale" : [
                0.29728788137435913,
                0.2666666805744171,
                0.29728788137435913
            ],
            "translation" : [
                0.0025501251220703125,
                5.941212177276611,
                0.0006322860717773438
            ]
        },
        {
            "mesh" : 2,
            "name" : "MoonRoof Top",
            "scale" : [
                7,
                0.125,
                9
            ],
            "translation" : [
                0,
                40.125,
                0
            ]
        }
    ],
    "materials" : [
        {
            "doubleSided" : true,
            "emissiveFactor" : [
                0,
                0,
                0
            ],
            "name" : "MiniTownMap",
            "pbrMetallicRoughness" : {
                "baseColorTexture" : {
                    "index" : 0,
                    "texCoord" : 0
                },
                "metallicFactor" : 0,
                "roughnessFactor" : 1
            }
        },
        {
            "doubleSided" : true,
            "emissiveFactor" : [
                0.05483245104551315,
                0.2667579650878906,
                0.19758246839046478
            ],
            "name" : "Neons DCL",
            "pbrMetallicRoughness" : {}
        },
        {
            "doubleSided" : true,
            "emissiveFactor" : [
                0.07949385792016983,
                0.022804174572229385,
                0.22696524858474731
            ],
            "name" : "Neon Artcade",
            "pbrMetallicRoughness" : {}
        },
        {
            "alphaCutoff" : 0,
            "alphaMode" : "MASK",
            "doubleSided" : true,
            "emissiveFactor" : [
                0,
                0,
                0
            ],
            "name" : "MoonRoof",
            "pbrMetallicRoughness" : {
                "baseColorFactor" : [
                    0,
                    0,
                    0,
                    0
                ],
                "metallicFactor" : 0,
                "roughnessFactor" : 0
            }
        }
    ],
    "meshes" : [
        {
            "name" : "Plane.119",
            "primitives" : [
                {
                    "attributes" : {
                        "POSITION" : 0,
                        "NORMAL" : 1,
                        "TEXCOORD_0" : 2
                    },
                    "indices" : 3
                }
            ]
        },
        {
            "name" : "Plane.120",
            "primitives" : [
                {
                    "attributes" : {
                        "POSITION" : 4,
                        "NORMAL" : 5,
                        "TEXCOORD_0" : 6
                    },
                    "indices" : 7,
                    "material" : 0
                },
                {
                    "attributes" : {
                        "POSITION" : 8,
                        "NORMAL" : 9,
                        "TEXCOORD_0" : 10
                    },
                    "indices" : 11,
                    "material" : 1
                },
                {
                    "attributes" : {
                        "POSITION" : 12,
                        "NORMAL" : 13,
                        "TEXCOORD_0" : 14
                    },
                    "indices" : 15,
                    "material" : 2
                }
            ]
        },
        {
            "name" : "Cube.022",
            "primitives" : [
                {
                    "attributes" : {
                        "POSITION" : 16,
                        "NORMAL" : 17,
                        "TEXCOORD_0" : 18
                    },
                    "indices" : 19,
                    "material" : 3
                }
            ]
        }
    ],
    "textures" : [
        {
            "source" : 0
        }
    ],
    "images" : [
        {
            "bufferView" : 8,
            "mimeType" : "image/png",
            "name" : "MiniTown_TX"
        }
    ],
    "accessors" : [
        {
            "bufferView" : 0,
            "componentType" : 5126,
            "count" : 819,
            "max" : [
                1.02114999294281,
                87.24637603759766,
                1.03574538230896
            ],
            "min" : [
                -0.9788499474525452,
                -73.75362396240234,
                -0.96425461769104
            ],
            "type" : "VEC3"
        },
        {
            "bufferView" : 1,
            "componentType" : 5126,
            "count" : 819,
            "type" : "VEC3"
        },
        {
            "bufferView" : 2,
            "componentType" : 5126,
            "count" : 819,
            "type" : "VEC2"
        },
        {
            "bufferView" : 3,
            "componentType" : 5123,
            "count" : 1704,
            "type" : "SCALAR"
        },
        {
            "bufferView" : 4,
            "componentType" : 5126,
            "count" : 1049,
            "max" : [
                53.81131362915039,
                128.657958984375,
                53.81776809692383
            ],
            "min" : [
                -53.82847213745117,
                -22.2795467376709,
                -53.822017669677734
            ],
            "type" : "VEC3"
        },
        {
            "bufferView" : 5,
            "componentType" : 5126,
            "count" : 1049,
            "type" : "VEC3"
        },
        {
            "bufferView" : 6,
            "componentType" : 5126,
            "count" : 1049,
            "type" : "VEC2"
        },
        {
            "bufferView" : 7,
            "componentType" : 5123,
            "count" : 2160,
            "type" : "SCALAR"
        },
        {
            "bufferView" : 9,
            "componentType" : 5126,
            "count" : 226,
            "max" : [
                52.13801193237305,
                128.657958984375,
                52.13800811767578
            ],
            "min" : [
                -52.13801574707031,
                -21.3420467376709,
                -51.85565948486328
            ],
            "type" : "VEC3"
        },
        {
            "bufferView" : 10,
            "componentType" : 5126,
            "count" : 226,
            "type" : "VEC3"
        },
        {
            "bufferView" : 11,
            "componentType" : 5126,
            "count" : 226,
            "type" : "VEC2"
        },
        {
            "bufferView" : 12,
            "componentType" : 5123,
            "count" : 372,
            "type" : "SCALAR"
        },
        {
            "bufferView" : 13,
            "componentType" : 5126,
            "count" : 264,
            "max" : [
                52.13801193237305,
                128.657958984375,
                52.13801193237305
            ],
            "min" : [
                -50.20698547363281,
                -22.187829971313477,
                -52.13801574707031
            ],
            "type" : "VEC3"
        },
        {
            "bufferView" : 14,
            "componentType" : 5126,
            "count" : 264,
            "type" : "VEC3"
        },
        {
            "bufferView" : 15,
            "componentType" : 5126,
            "count" : 264,
            "type" : "VEC2"
        },
        {
            "bufferView" : 16,
            "componentType" : 5123,
            "count" : 420,
            "type" : "SCALAR"
        },
        {
            "bufferView" : 17,
            "componentType" : 5126,
            "count" : 28,
            "max" : [
                1,
                1,
                1
            ],
            "min" : [
                -1.6646465063095093,
                -1,
                -1
            ],
            "type" : "VEC3"
        },
        {
            "bufferView" : 18,
            "componentType" : 5126,
            "count" : 28,
            "type" : "VEC3"
        },
        {
            "bufferView" : 19,
            "componentType" : 5126,
            "count" : 28,
            "type" : "VEC2"
        },
        {
            "bufferView" : 20,
            "componentType" : 5123,
            "count" : 48,
            "type" : "SCALAR"
        }
    ],
    "bufferViews" : [
        {
            "buffer" : 0,
            "byteLength" : 9828,
            "byteOffset" : 0
        },
        {
            "buffer" : 0,
            "byteLength" : 9828,
            "byteOffset" : 9828
        },
        {
            "buffer" : 0,
            "byteLength" : 6552,
            "byteOffset" : 19656
        },
        {
            "buffer" : 0,
            "byteLength" : 3408,
            "byteOffset" : 26208
        },
        {
            "buffer" : 0,
            "byteLength" : 12588,
            "byteOffset" : 29616
        },
        {
            "buffer" : 0,
            "byteLength" : 12588,
            "byteOffset" : 42204
        },
        {
            "buffer" : 0,
            "byteLength" : 8392,
            "byteOffset" : 54792
        },
        {
            "buffer" : 0,
            "byteLength" : 4320,
            "byteOffset" : 63184
        },
        {
            "buffer" : 0,
            "byteLength" : 5038,
            "byteOffset" : 67504
        },
        {
            "buffer" : 0,
            "byteLength" : 2712,
            "byteOffset" : 72544
        },
        {
            "buffer" : 0,
            "byteLength" : 2712,
            "byteOffset" : 75256
        },
        {
            "buffer" : 0,
            "byteLength" : 1808,
            "byteOffset" : 77968
        },
        {
            "buffer" : 0,
            "byteLength" : 744,
            "byteOffset" : 79776
        },
        {
            "buffer" : 0,
            "byteLength" : 3168,
            "byteOffset" : 80520
        },
        {
            "buffer" : 0,
            "byteLength" : 3168,
            "byteOffset" : 83688
        },
        {
            "buffer" : 0,
            "byteLength" : 2112,
            "byteOffset" : 86856
        },
        {
            "buffer" : 0,
            "byteLength" : 840,
            "byteOffset" : 88968
        },
        {
            "buffer" : 0,
            "byteLength" : 336,
            "byteOffset" : 89808
        },
        {
            "buffer" : 0,
            "byteLength" : 336,
            "byteOffset" : 90144
        },
        {
            "buffer" : 0,
            "byteLength" : 224,
            "byteOffset" : 90480
        },
        {
            "buffer" : 0,
            "byteLength" : 96,
            "byteOffset" : 90704
        }
    ],
    "buffers" : [
        {
            "byteLength" : 90800,
            "uri" : "data:application/octet-stream;base64,"
        }
    ]
}
