{
    "asset" : {
        "generator" : "Khronos glTF Blender I/O v1.1.46",
        "version" : "2.0"
    },
    "scene" : 0,
    "scenes" : [
        {
            "extras" : {
                "glTF2ExportSettings" : {
                    "export_apply" : 1,
                    "export_cameras" : 1,
                    "export_extras" : 1,
                    "export_format" : "GLTF_EMBEDDED",
                    "export_lights" : 1,
                    "export_selected" : 1,
                    "export_tangents" : 1
                }
            },
            "name" : "Scene",
            "nodes" : [
                0,
                1
            ]
        }
    ],
    "nodes" : [
        {
            "mesh" : 0,
            "name" : "Building_Collider",
            "scale" : [
                16,
                0.25,
                16
            ],
            "translation" : [
                -0.3384004831314087,
                18.438405990600586,
                -0.5719256401062012
            ]
        },
        {
            "mesh" : 1,
            "name" : "Studz Dragon",
            "scale" : [
                7,
                0.125,
                9
            ],
            "translation" : [
                0,
                40.125,
                0
            ]
        }
    ],
    "materials" : [
        {
            "alphaCutoff" : 0,
            "alphaMode" : "MASK",
            "doubleSided" : true,
            "emissiveFactor" : [
                0,
                0,
                0
            ],
            "name" : "MoonRoof",
            "pbrMetallicRoughness" : {
                "baseColorFactor" : [
                    0,
                    0,
                    0,
                    0
                ],
                "metallicFactor" : 0,
                "roughnessFactor" : 0
            }
        },
        {
            "doubleSided" : true,
            "emissiveFactor" : [
                0,
                0,
                0
            ],
            "name" : "MiniTownMap",
            "pbrMetallicRoughness" : {
                "baseColorTexture" : {
                    "index" : 0,
                    "texCoord" : 0
                },
                "metallicFactor" : 0,
                "roughnessFactor" : 1
            }
        },
        {
            "doubleSided" : true,
            "emissiveFactor" : [
                0.05483245104551315,
                0.2667579650878906,
                0.19758246839046478
            ],
            "name" : "Neons DCL",
            "pbrMetallicRoughness" : {}
        },
        {
            "doubleSided" : true,
            "emissiveFactor" : [
                0.07949385792016983,
                0.022804174572229385,
                0.22696524858474731
            ],
            "name" : "Neon Artcade",
            "pbrMetallicRoughness" : {}
        }
    ],
    "meshes" : [
        {
            "name" : "Plane.128",
            "primitives" : [
                {
                    "attributes" : {
                        "POSITION" : 0,
                        "NORMAL" : 1,
                        "TEXCOORD_0" : 2
                    },
                    "indices" : 3
                }
            ]
        },
        {
            "name" : "Cube.030",
            "primitives" : [
                {
                    "attributes" : {
                        "POSITION" : 4,
                        "NORMAL" : 5,
                        "TEXCOORD_0" : 6
                    },
                    "indices" : 7,
                    "material" : 0
                },
                {
                    "attributes" : {
                        "POSITION" : 8,
                        "NORMAL" : 9,
                        "TEXCOORD_0" : 10
                    },
                    "indices" : 11,
                    "material" : 1
                },
                {
                    "attributes" : {
                        "POSITION" : 12,
                        "NORMAL" : 13,
                        "TEXCOORD_0" : 14
                    },
                    "indices" : 15,
                    "material" : 2
                },
                {
                    "attributes" : {
                        "POSITION" : 16,
                        "NORMAL" : 17,
                        "TEXCOORD_0" : 18
                    },
                    "indices" : 19,
                    "material" : 3
                }
            ]
        }
    ],
    "textures" : [
        {
            "source" : 0
        }
    ],
    "images" : [
        {
            "bufferView" : 12,
            "mimeType" : "image/png",
            "name" : "MiniTown_TX"
        }
    ],
    "accessors" : [
        {
            "bufferView" : 0,
            "componentType" : 5126,
            "count" : 819,
            "max" : [
                1.02114999294281,
                87.24637603759766,
                1.03574538230896
            ],
            "min" : [
                -0.9788499474525452,
                -73.75362396240234,
                -0.96425461769104
            ],
            "type" : "VEC3"
        },
        {
            "bufferView" : 1,
            "componentType" : 5126,
            "count" : 819,
            "type" : "VEC3"
        },
        {
            "bufferView" : 2,
            "componentType" : 5126,
            "count" : 819,
            "type" : "VEC2"
        },
        {
            "bufferView" : 3,
            "componentType" : 5123,
            "count" : 1704,
            "type" : "SCALAR"
        },
        {
            "bufferView" : 4,
            "componentType" : 5126,
            "count" : 64,
            "max" : [
                1,
                1,
                1
            ],
            "min" : [
                -1.6646465063095093,
                -81.00003051757812,
                -1
            ],
            "type" : "VEC3"
        },
        {
            "bufferView" : 5,
            "componentType" : 5126,
            "count" : 64,
            "type" : "VEC3"
        },
        {
            "bufferView" : 6,
            "componentType" : 5126,
            "count" : 64,
            "type" : "VEC2"
        },
        {
            "bufferView" : 7,
            "componentType" : 5123,
            "count" : 108,
            "type" : "SCALAR"
        },
        {
            "bufferView" : 8,
            "componentType" : 5126,
            "count" : 1067,
            "max" : [
                2.285714864730835,
                1,
                1.777778148651123
            ],
            "min" : [
                -2.2857143878936768,
                -321.0000305175781,
                -1.7777780294418335
            ],
            "type" : "VEC3"
        },
        {
            "bufferView" : 9,
            "componentType" : 5126,
            "count" : 1067,
            "type" : "VEC3"
        },
        {
            "bufferView" : 10,
            "componentType" : 5126,
            "count" : 1067,
            "type" : "VEC2"
        },
        {
            "bufferView" : 11,
            "componentType" : 5123,
            "count" : 2220,
            "type" : "SCALAR"
        },
        {
            "bufferView" : 13,
            "componentType" : 5126,
            "count" : 228,
            "max" : [
                2.2146501541137695,
                1,
                1.7222923040390015
            ],
            "min" : [
                -2.213921308517456,
                -319.0000305175781,
                -1.7128252983093262
            ],
            "type" : "VEC3"
        },
        {
            "bufferView" : 14,
            "componentType" : 5126,
            "count" : 228,
            "type" : "VEC3"
        },
        {
            "bufferView" : 15,
            "componentType" : 5126,
            "count" : 228,
            "type" : "VEC2"
        },
        {
            "bufferView" : 16,
            "componentType" : 5123,
            "count" : 372,
            "type" : "SCALAR"
        },
        {
            "bufferView" : 17,
            "componentType" : 5126,
            "count" : 292,
            "max" : [
                2.2146501541137695,
                1,
                1.722292423248291
            ],
            "min" : [
                -2.131911039352417,
                -320.80438232421875,
                -1.7221521139144897
            ],
            "type" : "VEC3"
        },
        {
            "bufferView" : 18,
            "componentType" : 5126,
            "count" : 292,
            "type" : "VEC3"
        },
        {
            "bufferView" : 19,
            "componentType" : 5126,
            "count" : 292,
            "type" : "VEC2"
        },
        {
            "bufferView" : 20,
            "componentType" : 5123,
            "count" : 468,
            "type" : "SCALAR"
        }
    ],
    "bufferViews" : [
        {
            "buffer" : 0,
            "byteLength" : 9828,
            "byteOffset" : 0
        },
        {
            "buffer" : 0,
            "byteLength" : 9828,
            "byteOffset" : 9828
        },
        {
            "buffer" : 0,
            "byteLength" : 6552,
            "byteOffset" : 19656
        },
        {
            "buffer" : 0,
            "byteLength" : 3408,
            "byteOffset" : 26208
        },
        {
            "buffer" : 0,
            "byteLength" : 768,
            "byteOffset" : 29616
        },
        {
            "buffer" : 0,
            "byteLength" : 768,
            "byteOffset" : 30384
        },
        {
            "buffer" : 0,
            "byteLength" : 512,
            "byteOffset" : 31152
        },
        {
            "buffer" : 0,
            "byteLength" : 216,
            "byteOffset" : 31664
        },
        {
            "buffer" : 0,
            "byteLength" : 12804,
            "byteOffset" : 31880
        },
        {
            "buffer" : 0,
            "byteLength" : 12804,
            "byteOffset" : 44684
        },
        {
            "buffer" : 0,
            "byteLength" : 8536,
            "byteOffset" : 57488
        },
        {
            "buffer" : 0,
            "byteLength" : 4440,
            "byteOffset" : 66024
        },
        {
            "buffer" : 0,
            "byteLength" : 5038,
            "byteOffset" : 70464
        },
        {
            "buffer" : 0,
            "byteLength" : 2736,
            "byteOffset" : 75504
        },
        {
            "buffer" : 0,
            "byteLength" : 2736,
            "byteOffset" : 78240
        },
        {
            "buffer" : 0,
            "byteLength" : 1824,
            "byteOffset" : 80976
        },
        {
            "buffer" : 0,
            "byteLength" : 744,
            "byteOffset" : 82800
        },
        {
            "buffer" : 0,
            "byteLength" : 3504,
            "byteOffset" : 83544
        },
        {
            "buffer" : 0,
            "byteLength" : 3504,
            "byteOffset" : 87048
        },
        {
            "buffer" : 0,
            "byteLength" : 2336,
            "byteOffset" : 90552
        },
        {
            "buffer" : 0,
            "byteLength" : 936,
            "byteOffset" : 92888
        }
    ],
    "buffers" : [
        {
            "byteLength" : 93824,
            "uri" : "data:application/octet-stream;base64,"
        }
    ]
}
