{
    "asset" : {
        "generator" : "Khronos glTF Blender I/O v1.1.46",
        "version" : "2.0"
    },
    "scene" : 0,
    "scenes" : [
        {
            "extras" : {
                "glTF2ExportSettings" : {
                    "export_apply" : 1,
                    "export_cameras" : 1,
                    "export_extras" : 1,
                    "export_format" : "GLTF_SEPARATE",
                    "export_lights" : 1,
                    "export_selected" : 1,
                    "export_tangents" : 1
                }
            },
            "name" : "Scene",
            "nodes" : [
                0,
                1,
                2,
                3,
                4,
                5
            ]
        }
    ],
    "nodes" : [
        {
            "mesh" : 0,
            "name" : "Building.007",
            "scale" : [
                16,
                0.25,
                16
            ],
            "translation" : [
                -0.3384004831314087,
                18.438405990600586,
                -0.5719256401062012
            ]
        },
        {
            "mesh" : 1,
            "name" : "Building_collider.004",
            "scale" : [
                16,
                0.25,
                16
            ],
            "translation" : [
                -0.3384004831314087,
                18.438405990600586,
                -0.5719256401062012
            ]
        },
        {
            "mesh" : 2,
            "name" : "Wall Outline.008",
            "scale" : [
                0.2876979410648346,
                1,
                0.2876979410648346
            ],
            "translation" : [
                0.0025501251220703125,
                0.25,
                0.0006322860717773438
            ]
        },
        {
            "mesh" : 3,
            "name" : "Wall Outline.009",
            "scale" : [
                0.2876979410648346,
                1,
                0.2876979410648346
            ],
            "translation" : [
                0.0025501251220703125,
                10.25,
                0.0006322860717773438
            ]
        },
        {
            "mesh" : 4,
            "name" : "Wall Outline.010",
            "scale" : [
                0.2876979410648346,
                1,
                0.2876979410648346
            ],
            "translation" : [
                0.0025501251220703125,
                20.25,
                0.0006322860717773438
            ]
        },
        {
            "mesh" : 5,
            "name" : "Wall Outline.011",
            "scale" : [
                0.2876979410648346,
                1,
                0.2876979410648346
            ],
            "translation" : [
                0.0025501251220703125,
                30.25,
                0.0006322860717773438
            ]
        }
    ],
    "materials" : [
        {
            "doubleSided" : true,
            "emissiveFactor" : [
                0.11927617341279984,
                0.11927617341279984,
                0.11927617341279984
            ],
            "name" : "Material.001",
            "pbrMetallicRoughness" : {
                "baseColorFactor" : [
                    0.651405930519104,
                    0.6514057517051697,
                    0.6514058113098145,
                    1
                ],
                "metallicFactor" : 0,
                "roughnessFactor" : 1
            }
        },
        {
            "doubleSided" : true,
            "emissiveFactor" : [
                0.057802680879831314,
                0.057802680879831314,
                0.057802680879831314
            ],
            "name" : "Material.002",
            "pbrMetallicRoughness" : {
                "baseColorFactor" : [
                    0.035121046006679535,
                    0.15163181722164154,
                    0.31853941082954407,
                    1
                ],
                "metallicFactor" : 0,
                "roughnessFactor" : 1
            }
        },
        {
            "doubleSided" : true,
            "emissiveFactor" : [
                0.0732356607913971,
                0.0732356607913971,
                0.0732356607913971
            ],
            "name" : "Material",
            "pbrMetallicRoughness" : {
                "baseColorFactor" : [
                    1,
                    1,
                    1,
                    1
                ],
                "metallicFactor" : 0,
                "roughnessFactor" : 1
            }
        }
    ],
    "meshes" : [
        {
            "name" : "Plane.003",
            "primitives" : [
                {
                    "attributes" : {
                        "POSITION" : 0,
                        "NORMAL" : 1,
                        "TEXCOORD_0" : 2
                    },
                    "indices" : 3,
                    "material" : 0
                },
                {
                    "attributes" : {
                        "POSITION" : 4,
                        "NORMAL" : 5,
                        "TEXCOORD_0" : 6
                    },
                    "indices" : 7,
                    "material" : 1
                },
                {
                    "attributes" : {
                        "POSITION" : 8,
                        "NORMAL" : 9,
                        "TEXCOORD_0" : 10
                    },
                    "indices" : 11,
                    "material" : 2
                }
            ]
        },
        {
            "name" : "Plane.009",
            "primitives" : [
                {
                    "attributes" : {
                        "POSITION" : 12,
                        "NORMAL" : 13,
                        "TEXCOORD_0" : 14
                    },
                    "indices" : 15
                }
            ]
        },
        {
            "name" : "Plane.026",
            "primitives" : [
                {
                    "attributes" : {
                        "POSITION" : 16,
                        "NORMAL" : 17,
                        "TANGENT" : 18,
                        "TEXCOORD_0" : 19
                    },
                    "indices" : 20,
                    "material" : 1
                }
            ]
        },
        {
            "name" : "Plane.038",
            "primitives" : [
                {
                    "attributes" : {
                        "POSITION" : 21,
                        "NORMAL" : 22,
                        "TANGENT" : 23,
                        "TEXCOORD_0" : 24
                    },
                    "indices" : 20,
                    "material" : 0
                }
            ]
        },
        {
            "name" : "Plane.042",
            "primitives" : [
                {
                    "attributes" : {
                        "POSITION" : 25,
                        "NORMAL" : 26,
                        "TANGENT" : 27,
                        "TEXCOORD_0" : 28
                    },
                    "indices" : 20,
                    "material" : 1
                }
            ]
        },
        {
            "name" : "Plane.044",
            "primitives" : [
                {
                    "attributes" : {
                        "POSITION" : 29,
                        "NORMAL" : 30,
                        "TANGENT" : 31,
                        "TEXCOORD_0" : 32
                    },
                    "indices" : 20,
                    "material" : 1
                }
            ]
        }
    ],
    "accessors" : [
        {
            "bufferView" : 0,
            "componentType" : 5126,
            "count" : 562,
            "max" : [
                0.8650593757629395,
                87.24637603759766,
                0.8795347213745117
            ],
            "min" : [
                -0.8224405646324158,
                -73.65579223632812,
                -0.8079651594161987
            ],
            "type" : "VEC3"
        },
        {
            "bufferView" : 1,
            "componentType" : 5126,
            "count" : 562,
            "type" : "VEC3"
        },
        {
            "bufferView" : 2,
            "componentType" : 5126,
            "count" : 562,
            "type" : "VEC2"
        },
        {
            "bufferView" : 3,
            "componentType" : 5123,
            "count" : 1146,
            "type" : "SCALAR"
        },
        {
            "bufferView" : 4,
            "componentType" : 5126,
            "count" : 318,
            "max" : [
                1.02114999294281,
                87.24637603759766,
                1.03574538230896
            ],
            "min" : [
                -0.9788499474525452,
                -72.75362396240234,
                -0.96425461769104
            ],
            "type" : "VEC3"
        },
        {
            "bufferView" : 5,
            "componentType" : 5126,
            "count" : 318,
            "type" : "VEC3"
        },
        {
            "bufferView" : 6,
            "componentType" : 5126,
            "count" : 318,
            "type" : "VEC2"
        },
        {
            "bufferView" : 7,
            "componentType" : 5123,
            "count" : 654,
            "type" : "SCALAR"
        },
        {
            "bufferView" : 8,
            "componentType" : 5126,
            "count" : 157,
            "max" : [
                1.02114999294281,
                47.246376037597656,
                1.03574538230896
            ],
            "min" : [
                -0.9788499474525452,
                -73.75362396240234,
                -0.96425461769104
            ],
            "type" : "VEC3"
        },
        {
            "bufferView" : 9,
            "componentType" : 5126,
            "count" : 157,
            "type" : "VEC3"
        },
        {
            "bufferView" : 10,
            "componentType" : 5126,
            "count" : 157,
            "type" : "VEC2"
        },
        {
            "bufferView" : 11,
            "componentType" : 5123,
            "count" : 306,
            "type" : "SCALAR"
        },
        {
            "bufferView" : 12,
            "componentType" : 5126,
            "count" : 1037,
            "max" : [
                1.02114999294281,
                87.24637603759766,
                1.03574538230896
            ],
            "min" : [
                -0.9788499474525452,
                -73.75362396240234,
                -0.96425461769104
            ],
            "type" : "VEC3"
        },
        {
            "bufferView" : 13,
            "componentType" : 5126,
            "count" : 1037,
            "type" : "VEC3"
        },
        {
            "bufferView" : 14,
            "componentType" : 5126,
            "count" : 1037,
            "type" : "VEC2"
        },
        {
            "bufferView" : 15,
            "componentType" : 5123,
            "count" : 2106,
            "type" : "SCALAR"
        },
        {
            "bufferView" : 16,
            "componentType" : 5126,
            "count" : 83,
            "max" : [
                52.13801193237305,
                9.75,
                52.13800811767578
            ],
            "min" : [
                -52.13801574707031,
                6,
                -52.149024963378906
            ],
            "type" : "VEC3"
        },
        {
            "bufferView" : 17,
            "componentType" : 5126,
            "count" : 83,
            "type" : "VEC3"
        },
        {
            "bufferView" : 18,
            "componentType" : 5126,
            "count" : 83,
            "type" : "VEC4"
        },
        {
            "bufferView" : 19,
            "componentType" : 5126,
            "count" : 83,
            "type" : "VEC2"
        },
        {
            "bufferView" : 20,
            "componentType" : 5123,
            "count" : 162,
            "type" : "SCALAR"
        },
        {
            "bufferView" : 21,
            "componentType" : 5126,
            "count" : 83,
            "max" : [
                52.13801193237305,
                9.75,
                52.13800811767578
            ],
            "min" : [
                -52.13801574707031,
                6,
                -52.149024963378906
            ],
            "type" : "VEC3"
        },
        {
            "bufferView" : 22,
            "componentType" : 5126,
            "count" : 83,
            "type" : "VEC3"
        },
        {
            "bufferView" : 23,
            "componentType" : 5126,
            "count" : 83,
            "type" : "VEC4"
        },
        {
            "bufferView" : 24,
            "componentType" : 5126,
            "count" : 83,
            "type" : "VEC2"
        },
        {
            "bufferView" : 25,
            "componentType" : 5126,
            "count" : 83,
            "max" : [
                52.13801193237305,
                9.75,
                52.13800811767578
            ],
            "min" : [
                -52.13801574707031,
                6,
                -52.149024963378906
            ],
            "type" : "VEC3"
        },
        {
            "bufferView" : 26,
            "componentType" : 5126,
            "count" : 83,
            "type" : "VEC3"
        },
        {
            "bufferView" : 27,
            "componentType" : 5126,
            "count" : 83,
            "type" : "VEC4"
        },
        {
            "bufferView" : 28,
            "componentType" : 5126,
            "count" : 83,
            "type" : "VEC2"
        },
        {
            "bufferView" : 29,
            "componentType" : 5126,
            "count" : 83,
            "max" : [
                52.13801193237305,
                9.75,
                52.13800811767578
            ],
            "min" : [
                -52.13801574707031,
                6,
                -52.149024963378906
            ],
            "type" : "VEC3"
        },
        {
            "bufferView" : 30,
            "componentType" : 5126,
            "count" : 83,
            "type" : "VEC3"
        },
        {
            "bufferView" : 31,
            "componentType" : 5126,
            "count" : 83,
            "type" : "VEC4"
        },
        {
            "bufferView" : 32,
            "componentType" : 5126,
            "count" : 83,
            "type" : "VEC2"
        }
    ],
    "bufferViews" : [
        {
            "buffer" : 0,
            "byteLength" : 6744,
            "byteOffset" : 0
        },
        {
            "buffer" : 0,
            "byteLength" : 6744,
            "byteOffset" : 6744
        },
        {
            "buffer" : 0,
            "byteLength" : 4496,
            "byteOffset" : 13488
        },
        {
            "buffer" : 0,
            "byteLength" : 2292,
            "byteOffset" : 17984
        },
        {
            "buffer" : 0,
            "byteLength" : 3816,
            "byteOffset" : 20276
        },
        {
            "buffer" : 0,
            "byteLength" : 3816,
            "byteOffset" : 24092
        },
        {
            "buffer" : 0,
            "byteLength" : 2544,
            "byteOffset" : 27908
        },
        {
            "buffer" : 0,
            "byteLength" : 1308,
            "byteOffset" : 30452
        },
        {
            "buffer" : 0,
            "byteLength" : 1884,
            "byteOffset" : 31760
        },
        {
            "buffer" : 0,
            "byteLength" : 1884,
            "byteOffset" : 33644
        },
        {
            "buffer" : 0,
            "byteLength" : 1256,
            "byteOffset" : 35528
        },
        {
            "buffer" : 0,
            "byteLength" : 612,
            "byteOffset" : 36784
        },
        {
            "buffer" : 0,
            "byteLength" : 12444,
            "byteOffset" : 37396
        },
        {
            "buffer" : 0,
            "byteLength" : 12444,
            "byteOffset" : 49840
        },
        {
            "buffer" : 0,
            "byteLength" : 8296,
            "byteOffset" : 62284
        },
        {
            "buffer" : 0,
            "byteLength" : 4212,
            "byteOffset" : 70580
        },
        {
            "buffer" : 0,
            "byteLength" : 996,
            "byteOffset" : 74792
        },
        {
            "buffer" : 0,
            "byteLength" : 996,
            "byteOffset" : 75788
        },
        {
            "buffer" : 0,
            "byteLength" : 1328,
            "byteOffset" : 76784
        },
        {
            "buffer" : 0,
            "byteLength" : 664,
            "byteOffset" : 78112
        },
        {
            "buffer" : 0,
            "byteLength" : 324,
            "byteOffset" : 78776
        },
        {
            "buffer" : 0,
            "byteLength" : 996,
            "byteOffset" : 79100
        },
        {
            "buffer" : 0,
            "byteLength" : 996,
            "byteOffset" : 80096
        },
        {
            "buffer" : 0,
            "byteLength" : 1328,
            "byteOffset" : 81092
        },
        {
            "buffer" : 0,
            "byteLength" : 664,
            "byteOffset" : 82420
        },
        {
            "buffer" : 0,
            "byteLength" : 996,
            "byteOffset" : 83084
        },
        {
            "buffer" : 0,
            "byteLength" : 996,
            "byteOffset" : 84080
        },
        {
            "buffer" : 0,
            "byteLength" : 1328,
            "byteOffset" : 85076
        },
        {
            "buffer" : 0,
            "byteLength" : 664,
            "byteOffset" : 86404
        },
        {
            "buffer" : 0,
            "byteLength" : 996,
            "byteOffset" : 87068
        },
        {
            "buffer" : 0,
            "byteLength" : 996,
            "byteOffset" : 88064
        },
        {
            "buffer" : 0,
            "byteLength" : 1328,
            "byteOffset" : 89060
        },
        {
            "buffer" : 0,
            "byteLength" : 664,
            "byteOffset" : 90388
        }
    ],
    "buffers" : [
        {
            "byteLength" : 91052,
            "uri" : "StudzDragon_NewNeons.bin"
        }
    ]
}
