{
    "asset" : {
        "generator" : "Khronos glTF Blender I/O v1.1.46",
        "version" : "2.0"
    },
    "scene" : 0,
    "scenes" : [
        {
            "extras" : {
                "glTF2ExportSettings" : {
                    "export_apply" : 1,
                    "export_cameras" : 1,
                    "export_extras" : 1,
                    "export_format" : "GLTF_SEPARATE",
                    "export_lights" : 1,
                    "export_selected" : 1,
                    "export_tangents" : 1
                }
            },
            "name" : "Scene",
            "nodes" : [
                0,
                1
            ]
        }
    ],
    "nodes" : [
        {
            "mesh" : 0,
            "name" : "Building",
            "scale" : [
                16,
                0.25,
                16
            ],
            "translation" : [
                -0.3384004831314087,
                18.438405990600586,
                -0.5719256401062012
            ]
        },
        {
            "mesh" : 1,
            "name" : "Building_collider",
            "scale" : [
                16,
                0.25,
                16
            ],
            "translation" : [
                -0.3384004831314087,
                18.438405990600586,
                -0.5719256401062012
            ]
        }
    ],
    "materials" : [
        {
            "doubleSided" : true,
            "emissiveFactor" : [
                0.11927617341279984,
                0.11927617341279984,
                0.11927617341279984
            ],
            "name" : "Material.001",
            "pbrMetallicRoughness" : {
                "baseColorFactor" : [
                    0.651405930519104,
                    0.6514057517051697,
                    0.6514058113098145,
                    1
                ],
                "metallicFactor" : 0,
                "roughnessFactor" : 1
            }
        },
        {
            "doubleSided" : true,
            "emissiveFactor" : [
                0.057802680879831314,
                0.057802680879831314,
                0.057802680879831314
            ],
            "name" : "Material.002",
            "pbrMetallicRoughness" : {
                "baseColorFactor" : [
                    0.035121046006679535,
                    0.15163181722164154,
                    0.31853941082954407,
                    1
                ],
                "metallicFactor" : 0,
                "roughnessFactor" : 1
            }
        },
        {
            "doubleSided" : true,
            "emissiveFactor" : [
                0.0732356607913971,
                0.0732356607913971,
                0.0732356607913971
            ],
            "name" : "Material",
            "pbrMetallicRoughness" : {
                "baseColorFactor" : [
                    1,
                    1,
                    1,
                    1
                ],
                "metallicFactor" : 0,
                "roughnessFactor" : 1
            }
        }
    ],
    "meshes" : [
        {
            "name" : "Plane.032",
            "primitives" : [
                {
                    "attributes" : {
                        "POSITION" : 0,
                        "NORMAL" : 1,
                        "TEXCOORD_0" : 2
                    },
                    "indices" : 3,
                    "material" : 0
                },
                {
                    "attributes" : {
                        "POSITION" : 4,
                        "NORMAL" : 5,
                        "TEXCOORD_0" : 6
                    },
                    "indices" : 7,
                    "material" : 1
                },
                {
                    "attributes" : {
                        "POSITION" : 8,
                        "NORMAL" : 9,
                        "TEXCOORD_0" : 10
                    },
                    "indices" : 11,
                    "material" : 2
                }
            ]
        },
        {
            "name" : "Plane.034",
            "primitives" : [
                {
                    "attributes" : {
                        "POSITION" : 12,
                        "NORMAL" : 13,
                        "TEXCOORD_0" : 14
                    },
                    "indices" : 15
                }
            ]
        }
    ],
    "accessors" : [
        {
            "bufferView" : 0,
            "componentType" : 5126,
            "count" : 562,
            "max" : [
                0.8650593757629395,
                87.24637603759766,
                0.8795347213745117
            ],
            "min" : [
                -0.8224405646324158,
                -73.65579223632812,
                -0.8079651594161987
            ],
            "type" : "VEC3"
        },
        {
            "bufferView" : 1,
            "componentType" : 5126,
            "count" : 562,
            "type" : "VEC3"
        },
        {
            "bufferView" : 2,
            "componentType" : 5126,
            "count" : 562,
            "type" : "VEC2"
        },
        {
            "bufferView" : 3,
            "componentType" : 5123,
            "count" : 1146,
            "type" : "SCALAR"
        },
        {
            "bufferView" : 4,
            "componentType" : 5126,
            "count" : 318,
            "max" : [
                1.02114999294281,
                87.24637603759766,
                1.03574538230896
            ],
            "min" : [
                -0.9788499474525452,
                -72.75362396240234,
                -0.96425461769104
            ],
            "type" : "VEC3"
        },
        {
            "bufferView" : 5,
            "componentType" : 5126,
            "count" : 318,
            "type" : "VEC3"
        },
        {
            "bufferView" : 6,
            "componentType" : 5126,
            "count" : 318,
            "type" : "VEC2"
        },
        {
            "bufferView" : 7,
            "componentType" : 5123,
            "count" : 654,
            "type" : "SCALAR"
        },
        {
            "bufferView" : 8,
            "componentType" : 5126,
            "count" : 157,
            "max" : [
                1.02114999294281,
                47.246376037597656,
                1.03574538230896
            ],
            "min" : [
                -0.9788499474525452,
                -73.75362396240234,
                -0.96425461769104
            ],
            "type" : "VEC3"
        },
        {
            "bufferView" : 9,
            "componentType" : 5126,
            "count" : 157,
            "type" : "VEC3"
        },
        {
            "bufferView" : 10,
            "componentType" : 5126,
            "count" : 157,
            "type" : "VEC2"
        },
        {
            "bufferView" : 11,
            "componentType" : 5123,
            "count" : 306,
            "type" : "SCALAR"
        },
        {
            "bufferView" : 12,
            "componentType" : 5126,
            "count" : 1037,
            "max" : [
                1.02114999294281,
                87.24637603759766,
                1.03574538230896
            ],
            "min" : [
                -0.9788499474525452,
                -73.75362396240234,
                -0.96425461769104
            ],
            "type" : "VEC3"
        },
        {
            "bufferView" : 13,
            "componentType" : 5126,
            "count" : 1037,
            "type" : "VEC3"
        },
        {
            "bufferView" : 14,
            "componentType" : 5126,
            "count" : 1037,
            "type" : "VEC2"
        },
        {
            "bufferView" : 15,
            "componentType" : 5123,
            "count" : 2106,
            "type" : "SCALAR"
        }
    ],
    "bufferViews" : [
        {
            "buffer" : 0,
            "byteLength" : 6744,
            "byteOffset" : 0
        },
        {
            "buffer" : 0,
            "byteLength" : 6744,
            "byteOffset" : 6744
        },
        {
            "buffer" : 0,
            "byteLength" : 4496,
            "byteOffset" : 13488
        },
        {
            "buffer" : 0,
            "byteLength" : 2292,
            "byteOffset" : 17984
        },
        {
            "buffer" : 0,
            "byteLength" : 3816,
            "byteOffset" : 20276
        },
        {
            "buffer" : 0,
            "byteLength" : 3816,
            "byteOffset" : 24092
        },
        {
            "buffer" : 0,
            "byteLength" : 2544,
            "byteOffset" : 27908
        },
        {
            "buffer" : 0,
            "byteLength" : 1308,
            "byteOffset" : 30452
        },
        {
            "buffer" : 0,
            "byteLength" : 1884,
            "byteOffset" : 31760
        },
        {
            "buffer" : 0,
            "byteLength" : 1884,
            "byteOffset" : 33644
        },
        {
            "buffer" : 0,
            "byteLength" : 1256,
            "byteOffset" : 35528
        },
        {
            "buffer" : 0,
            "byteLength" : 612,
            "byteOffset" : 36784
        },
        {
            "buffer" : 0,
            "byteLength" : 12444,
            "byteOffset" : 37396
        },
        {
            "buffer" : 0,
            "byteLength" : 12444,
            "byteOffset" : 49840
        },
        {
            "buffer" : 0,
            "byteLength" : 8296,
            "byteOffset" : 62284
        },
        {
            "buffer" : 0,
            "byteLength" : 4212,
            "byteOffset" : 70580
        }
    ],
    "buffers" : [
        {
            "byteLength" : 74792,
            "uri" : "StudzDragonBuilding_Final3.bin"
        }
    ]
}
