{
    "asset" : {
        "generator" : "Khronos glTF Blender I/O v1.1.46",
        "version" : "2.0"
    },
    "scene" : 0,
    "scenes" : [
        {
            "extras" : {
                "glTF2ExportSettings" : {
                    "export_apply" : 1,
                    "export_cameras" : 1,
                    "export_extras" : 1,
                    "export_format" : "GLTF_EMBEDDED",
                    "export_lights" : 1,
                    "export_selected" : 1,
                    "export_tangents" : 1
                }
            },
            "name" : "Scene",
            "nodes" : [
                0,
                1
            ]
        }
    ],
    "nodes" : [
        {
            "mesh" : 0,
            "name" : "NewBuilding_Collider",
            "scale" : [
                16,
                0.25,
                16
            ],
            "translation" : [
                -0.3384004831314087,
                18.438405990600586,
                -0.5719256401062012
            ]
        },
        {
            "mesh" : 1,
            "name" : "NewBuildingDragon",
            "scale" : [
                1,
                0.125,
                1
            ],
            "translation" : [
                -1.7460198402404785,
                30.124996185302734,
                0.07692307978868484
            ]
        }
    ],
    "materials" : [
        {
            "doubleSided" : true,
            "emissiveFactor" : [
                0,
                0,
                0
            ],
            "name" : "MiniTownMap",
            "pbrMetallicRoughness" : {
                "baseColorTexture" : {
                    "index" : 0,
                    "texCoord" : 0
                },
                "metallicFactor" : 0,
                "roughnessFactor" : 1
            }
        },
        {
            "doubleSided" : true,
            "emissiveFactor" : [
                0.07949385792016983,
                0.022804174572229385,
                0.22696524858474731
            ],
            "name" : "Neon Artcade",
            "pbrMetallicRoughness" : {}
        },
        {
            "alphaCutoff" : 0,
            "alphaMode" : "MASK",
            "doubleSided" : true,
            "emissiveFactor" : [
                0,
                0,
                0
            ],
            "name" : "MoonRoof",
            "pbrMetallicRoughness" : {
                "baseColorFactor" : [
                    0,
                    0,
                    0,
                    0
                ],
                "metallicFactor" : 0,
                "roughnessFactor" : 0
            }
        },
        {
            "doubleSided" : true,
            "emissiveFactor" : [
                0.05483245104551315,
                0.2667579650878906,
                0.19758246839046478
            ],
            "name" : "Neons DCL",
            "pbrMetallicRoughness" : {}
        }
    ],
    "meshes" : [
        {
            "name" : "Plane.141",
            "primitives" : [
                {
                    "attributes" : {
                        "POSITION" : 0,
                        "NORMAL" : 1,
                        "TEXCOORD_0" : 2
                    },
                    "indices" : 3
                }
            ]
        },
        {
            "name" : "Cube.072",
            "primitives" : [
                {
                    "attributes" : {
                        "POSITION" : 4,
                        "NORMAL" : 5,
                        "TEXCOORD_0" : 6
                    },
                    "indices" : 7,
                    "material" : 0
                },
                {
                    "attributes" : {
                        "POSITION" : 8,
                        "NORMAL" : 9,
                        "TEXCOORD_0" : 10
                    },
                    "indices" : 11,
                    "material" : 1
                },
                {
                    "attributes" : {
                        "POSITION" : 12,
                        "NORMAL" : 13,
                        "TEXCOORD_0" : 14
                    },
                    "indices" : 15,
                    "material" : 2
                },
                {
                    "attributes" : {
                        "POSITION" : 16,
                        "NORMAL" : 17,
                        "TEXCOORD_0" : 18
                    },
                    "indices" : 19,
                    "material" : 3
                }
            ]
        }
    ],
    "textures" : [
        {
            "source" : 0
        }
    ],
    "images" : [
        {
            "bufferView" : 8,
            "mimeType" : "image/png",
            "name" : "MiniTown_TX"
        }
    ],
    "accessors" : [
        {
            "bufferView" : 0,
            "componentType" : 5126,
            "count" : 742,
            "max" : [
                1.02114999294281,
                87.24637603759766,
                1.03574538230896
            ],
            "min" : [
                -0.9788499474525452,
                -73.75362396240234,
                -0.96425461769104
            ],
            "type" : "VEC3"
        },
        {
            "bufferView" : 1,
            "componentType" : 5126,
            "count" : 742,
            "type" : "VEC3"
        },
        {
            "bufferView" : 2,
            "componentType" : 5126,
            "count" : 742,
            "type" : "VEC2"
        },
        {
            "bufferView" : 3,
            "componentType" : 5123,
            "count" : 1482,
            "type" : "SCALAR"
        },
        {
            "bufferView" : 4,
            "componentType" : 5126,
            "count" : 1073,
            "max" : [
                17.746023178100586,
                81.00003051757812,
                15.923080444335938
            ],
            "min" : [
                -14.25398063659668,
                -241,
                -16.07692527770996
            ],
            "type" : "VEC3"
        },
        {
            "bufferView" : 5,
            "componentType" : 5126,
            "count" : 1073,
            "type" : "VEC3"
        },
        {
            "bufferView" : 6,
            "componentType" : 5126,
            "count" : 1073,
            "type" : "VEC2"
        },
        {
            "bufferView" : 7,
            "componentType" : 5123,
            "count" : 2184,
            "type" : "SCALAR"
        },
        {
            "bufferView" : 9,
            "componentType" : 5126,
            "count" : 328,
            "max" : [
                17.24856948852539,
                81.00003051757812,
                15.423707962036133
            ],
            "min" : [
                -13.177358627319336,
                -240.80435180664062,
                -15.576292037963867
            ],
            "type" : "VEC3"
        },
        {
            "bufferView" : 10,
            "componentType" : 5126,
            "count" : 328,
            "type" : "VEC3"
        },
        {
            "bufferView" : 11,
            "componentType" : 5126,
            "count" : 328,
            "type" : "VEC2"
        },
        {
            "bufferView" : 12,
            "componentType" : 5123,
            "count" : 516,
            "type" : "SCALAR"
        },
        {
            "bufferView" : 13,
            "componentType" : 5126,
            "count" : 24,
            "max" : [
                8.74601936340332,
                81.00003051757812,
                8.923076629638672
            ],
            "min" : [
                -9.90650749206543,
                79.00003051757812,
                -9.076923370361328
            ],
            "type" : "VEC3"
        },
        {
            "bufferView" : 14,
            "componentType" : 5126,
            "count" : 24,
            "type" : "VEC3"
        },
        {
            "bufferView" : 15,
            "componentType" : 5126,
            "count" : 24,
            "type" : "VEC2"
        },
        {
            "bufferView" : 16,
            "componentType" : 5123,
            "count" : 36,
            "type" : "SCALAR"
        },
        {
            "bufferView" : 17,
            "componentType" : 5126,
            "count" : 216,
            "max" : [
                17.24856948852539,
                81.00003051757812,
                15.423707008361816
            ],
            "min" : [
                -13.75143051147461,
                -239,
                -15.492351531982422
            ],
            "type" : "VEC3"
        },
        {
            "bufferView" : 18,
            "componentType" : 5126,
            "count" : 216,
            "type" : "VEC3"
        },
        {
            "bufferView" : 19,
            "componentType" : 5126,
            "count" : 216,
            "type" : "VEC2"
        },
        {
            "bufferView" : 20,
            "componentType" : 5123,
            "count" : 360,
            "type" : "SCALAR"
        }
    ],
    "bufferViews" : [
        {
            "buffer" : 0,
            "byteLength" : 8904,
            "byteOffset" : 0
        },
        {
            "buffer" : 0,
            "byteLength" : 8904,
            "byteOffset" : 8904
        },
        {
            "buffer" : 0,
            "byteLength" : 5936,
            "byteOffset" : 17808
        },
        {
            "buffer" : 0,
            "byteLength" : 2964,
            "byteOffset" : 23744
        },
        {
            "buffer" : 0,
            "byteLength" : 12876,
            "byteOffset" : 26708
        },
        {
            "buffer" : 0,
            "byteLength" : 12876,
            "byteOffset" : 39584
        },
        {
            "buffer" : 0,
            "byteLength" : 8584,
            "byteOffset" : 52460
        },
        {
            "buffer" : 0,
            "byteLength" : 4368,
            "byteOffset" : 61044
        },
        {
            "buffer" : 0,
            "byteLength" : 5038,
            "byteOffset" : 65412
        },
        {
            "buffer" : 0,
            "byteLength" : 3936,
            "byteOffset" : 70452
        },
        {
            "buffer" : 0,
            "byteLength" : 3936,
            "byteOffset" : 74388
        },
        {
            "buffer" : 0,
            "byteLength" : 2624,
            "byteOffset" : 78324
        },
        {
            "buffer" : 0,
            "byteLength" : 1032,
            "byteOffset" : 80948
        },
        {
            "buffer" : 0,
            "byteLength" : 288,
            "byteOffset" : 81980
        },
        {
            "buffer" : 0,
            "byteLength" : 288,
            "byteOffset" : 82268
        },
        {
            "buffer" : 0,
            "byteLength" : 192,
            "byteOffset" : 82556
        },
        {
            "buffer" : 0,
            "byteLength" : 72,
            "byteOffset" : 82748
        },
        {
            "buffer" : 0,
            "byteLength" : 2592,
            "byteOffset" : 82820
        },
        {
            "buffer" : 0,
            "byteLength" : 2592,
            "byteOffset" : 85412
        },
        {
            "buffer" : 0,
            "byteLength" : 1728,
            "byteOffset" : 88004
        },
        {
            "buffer" : 0,
            "byteLength" : 720,
            "byteOffset" : 89732
        }
    ],
    "buffers" : [
        {
            "byteLength" : 90452,
            "uri" : "data:application/octet-stream;base64,"
        }
    ]
}
